#!OML:ASF F:\VICON\USERDATA\INSTALL\Justin_Nancy\Justin_Nancy.ASF
:FULLY-SPECIFIED
:DEGREES
436
root 0.553028 17.0033 18.7864 2.39502 -7.29017 -3.51168
lowerback 6.25908 2.47671 5.00797
upperback -0.218064 3.7496 2.24705
thorax -3.56642 1.78778 -0.819305
lowerneck -17.7741 -3.80713 -9.66608
upperneck 19.3731 -4.02523 6.30598
head 9.37149 -1.90409 3.24717
rclavicle -2.9768e-014 1.03368e-014
rhumerus -21.1527 -7.96485 -78.1615
rradius 40.7672
rwrist 1.18407
rhand -17.0854 14.1553
rfingers 7.12502
rthumb 9.15297 -15.6261
lclavicle -2.9768e-014 1.03368e-014
lhumerus -37.0851 22.6444 77.6554
lradius 21.3752
lwrist -16.1855
lhand -10.8832 27.4571
lfingers 7.12502
lthumb 15.133 56.8839
rfemur 12.5209 5.77661 29.9449
rtibia 20.2725
rfoot -15.8614 -4.5467
rtoes -12.952
lfemur -32.1096 -3.82091 -14.8723
ltibia 24.1332
lfoot -5.03857 5.55796
ltoes -12.4222
437
root 0.559583 17.0065 18.9938 2.20609 -7.26662 -3.56391
lowerback 6.21919 2.49242 4.98392
upperback -0.0856222 3.76116 2.30744
thorax -3.41138 1.7998 -0.73904
lowerneck -18.0619 -3.89312 -9.49975
upperneck 19.5845 -4.1156 6.06796
head 9.49725 -1.95719 3.12395
rclavicle -1.98785e-016 -1.27222e-014
rhumerus -21.0648 -8.40124 -78.0411
rradius 40.4582
rwrist 1.31987
rhand -17.2051 14.386
rfingers 7.12502
rthumb 9.03748 -15.4004
lclavicle -1.98785e-016 -1.27222e-014
lhumerus -37.138 23.5003 77.2499
lradius 20.976
lwrist -17.571
lhand -10.8021 26.7155
lfingers 7.12502
lthumb 15.2111 56.1363
rfemur 12.8151 5.76559 29.9913
rtibia 21.4099
rfoot -15.0832 -4.33447
rtoes -14.9071
lfemur -31.8852 -3.9581 -14.9649
ltibia 25.0084
lfoot -3.20155 3.87908
ltoes -11.6133
438
root 0.574028 17.0172 19.2052 2.17065 -7.23567 -3.54025
lowerback 6.10958 2.52262 5.06344
upperback -0.121622 3.79887 2.24283
thorax -3.37594 1.81711 -0.847984
lowerneck -17.7639 -3.97136 -9.38713
upperneck 19.4513 -4.27823 6.05527
head 9.40726 -2.02945 3.07858
rclavicle 2.78299e-015 -1.59028e-015
rhumerus -21.4144 -8.90508 -77.9751
rradius 40.4241
rwrist 1.45681
rhand -17.3334 14.4157
rfingers 7.12502
rthumb 8.91363 -15.376
lclavicle 2.78299e-015 -1.59028e-015
lhumerus -37.2143 24.0437 76.7555
lradius 20.3839
lwrist -18.576
lhand -10.3789 27.9203
lfingers 7.12502
lthumb 15.6187 57.3098
rfemur 12.7368 5.65065 29.8068
rtibia 22.8014
rfoot -14.321 -3.90863
rtoes -16.4571
lfemur -31.8039 -3.9645 -15.1812
ltibia 25.7157
lfoot -1.78638 2.52663
ltoes -8.77191
439
root 0.58556 17.037 19.4278 2.04794 -7.24544 -2.98142
lowerback 6.13115 2.60913 4.60633
upperback -0.210679 3.88097 2.04865
thorax -3.49228 1.86097 -0.805617
lowerneck -17.6489 -4.05682 -9.59792
upperneck 19.5542 -4.43061 6.38405
head 9.44811 -2.0828 3.21043
rclavicle -2.9271e-014 -6.36111e-015
rhumerus -21.9565 -9.5582 -77.841
rradius 40.4223
rwrist 1.47316
rhand -17.5083 14.144
rfingers 7.12502
rthumb 8.74488 -15.6549
lclavicle -2.9271e-014 -6.36111e-015
lhumerus -37.4068 24.0695 76.5699
lradius 20.1396
lwrist -18.8219
lhand -9.77226 30.0863
lfingers 7.12502
lthumb 16.2029 59.4292
rfemur 12.4713 5.46836 28.9833
rtibia 24.4625
rfoot -13.0858 -3.185
rtoes -17.121
lfemur -31.4645 -3.97762 -15.9851
ltibia 26.2708
lfoot -0.926912 1.62343
ltoes -5.13364
440
root 0.59727 17.0585 19.6586 1.71944 -7.12147 -2.14344
lowerback 6.11651 2.64953 3.89073
upperback -0.224653 3.87461 1.79296
thorax -3.52699 1.86838 -0.671839
lowerneck -17.5801 -4.09497 -9.69909
upperneck 19.7774 -4.50967 6.54518
head 9.52695 -2.11247 3.27679
rclavicle -2.28105e-014 0
rhumerus -22.4774 -10.2146 -77.6914
rradius 40.2767
rwrist 1.59538
rhand -17.8244 13.8108
rfingers 7.12502
rthumb 8.43983 -16.0006
lclavicle -2.28105e-014 0
lhumerus -37.6911 23.8046 76.607
lradius 20.2067
lwrist -18.3125
lhand -10.2336 30.8219
lfingers 7.12502
lthumb 15.7587 60.2004
rfemur 12.127 5.11128 27.8278
rtibia 26.5052
rfoot -11.4973 -2.29372
rtoes -16.0046
lfemur -30.7943 -4.01603 -17.168
ltibia 26.7039
lfoot -0.389639 0.612306
ltoes -2.52432
441
root 0.60391 17.0764 19.8844 1.4007 -6.90817 -1.43608
lowerback 5.98408 2.625 3.20836
upperback -0.166615 3.77845 1.60318
thorax -3.42611 1.83417 -0.472106
lowerneck -17.4616 -4.13873 -9.68631
upperneck 19.9316 -4.59787 6.56569
head 9.56737 -2.15356 3.2727
rclavicle -6.93262e-015 -7.95139e-016
rhumerus -23.0002 -10.9711 -77.617
rradius 40.2511
rwrist 1.82554
rhand -17.8118 13.598
rfingers 7.12502
rthumb 8.45197 -16.2129
lclavicle -6.93262e-015 -7.95139e-016
lhumerus -38.03 23.6299 76.6069
lradius 20.4358
lwrist -17.6944
lhand -11.1382 30.2085
lfingers 7.12502
lthumb 14.8874 59.6536
rfemur 11.6467 4.7455 26.8623
rtibia 28.9501
rfoot -10.0534 -1.67113
rtoes -15.2391
lfemur -30.1894 -3.64172 -18.3471
ltibia 27.1226
lfoot -0.00564588 -0.669751
ltoes -1.7925
442
root 0.607895 17.0885 20.0981 1.13027 -6.67452 -0.774743
lowerback 5.82579 2.6026 2.53559
upperback 0.00389954 3.68436 1.41923
thorax -3.19294 1.8023 -0.266819
lowerneck -17.4834 -4.21472 -9.81666
upperneck 19.9141 -4.72339 6.81305
head 9.58631 -2.19392 3.36398
rclavicle 4.99446e-014 6.36111e-015
rhumerus -23.3781 -11.7145 -77.6209
rradius 40.2816
rwrist 1.89863
rhand -17.8975 13.4953
rfingers 7.12502
rthumb 8.36927 -16.3189
lclavicle 4.99446e-014 6.36111e-015
lhumerus -38.1685 23.8169 76.4142
lradius 20.6349
lwrist -17.8249
lhand -11.2642 28.8766
lfingers 7.12502
lthumb 14.7659 58.3306
rfemur 10.9588 4.2146 25.8954
rtibia 31.6288
rfoot -8.50774 -0.902432
rtoes -16.1531
lfemur -29.6081 -2.93701 -19.5933
ltibia 27.6693
lfoot -0.0382771 -1.28362
ltoes -2.85666
443
root 0.610545 17.0923 20.3022 0.854561 -6.49778 -0.341635
lowerback 5.95283 2.58069 2.09535
upperback 0.029927 3.62428 1.27443
thorax -3.25602 1.77779 -0.171794
lowerneck -17.3163 -4.20596 -9.78753
upperneck 19.8534 -4.76404 6.94178
head 9.54015 -2.19911 3.39963
rclavicle 3.40419e-014 9.14409e-015
rhumerus -23.733 -12.3365 -77.6024
rradius 39.8902
rwrist 1.84246
rhand -18.1135 13.4862
rfingers 7.12502
rthumb 8.16078 -16.3362
lclavicle 3.40419e-014 9.14409e-015
lhumerus -38.4617 24.35 75.8868
lradius 20.6685
lwrist -18.4853
lhand -10.7414 28.0726
lfingers 7.12502
lthumb 15.2696 57.489
rfemur 10.0314 3.80457 25.1919
rtibia 34.4195
rfoot -6.15728 -0.0159487
rtoes -15.2377
lfemur -28.9513 -2.13938 -20.5612
ltibia 28.3631
lfoot -0.234896 -1.46811
ltoes -2.73449
444
root 0.613729 17.0986 20.5127 0.655452 -6.36354 0.010567
lowerback 6.05619 2.57014 1.72593
upperback -0.0943979 3.58744 1.17445
thorax -3.45918 1.76228 -0.0748909
lowerneck -17.1124 -4.16658 -9.70753
upperneck 20.096 -4.74995 6.88702
head 9.58257 -2.19801 3.37428
rclavicle 1.09083e-014 7.95139e-016
rhumerus -24.3571 -13.037 -77.5027
rradius 39.4876
rwrist 2.07601
rhand -18.1912 13.3522
rfingers 7.12502
rthumb 8.08583 -16.4731
lclavicle 1.09083e-014 7.95139e-016
lhumerus -38.873 24.9689 75.2497
lradius 20.4532
lwrist -19.1756
lhand -10.1894 28.4699
lfingers 7.12502
lthumb 15.8013 57.845
rfemur 8.88813 3.3331 24.4941
rtibia 37.3001
rfoot -3.01595 0.923428
rtoes -13.9118
lfemur -28.3968 -1.72762 -21.2496
ltibia 29.068
lfoot -0.641467 -2.08072
ltoes -0.4678
445
root 0.627005 17.1087 20.7243 0.58005 -5.95922 0.319341
lowerback 5.88981 2.46952 1.60608
upperback -0.0895889 3.43565 1.02461
thorax -3.36016 1.68887 -0.140827
lowerneck -17.1353 -4.20084 -9.72563
upperneck 20.2163 -4.80975 6.94336
head 9.63655 -2.22132 3.39056
rclavicle 2.07481e-014 -3.18055e-015
rhumerus -25.0313 -13.9709 -77.4086
rradius 39.5169
rwrist 2.3628
rhand -17.9113 12.7894
rfingers 7.12502
rthumb 8.35593 -17.0253
lclavicle 2.07481e-014 -3.18055e-015
lhumerus -38.9387 25.3193 74.9274
lradius 20.3225
lwrist -19.1094
lhand -9.64297 28.6753
lfingers 7.12502
lthumb 16.3274 58.008
rfemur 7.57691 2.45349 23.675
rtibia 40.1726
rfoot 0.421595 1.89119
rtoes -12.9771
lfemur -28.0105 -1.57459 -21.9177
ltibia 29.7564
lfoot -1.23422 -3.3816
ltoes 2.02489
446
root 0.636555 17.1145 20.9204 0.408443 -5.60815 0.600344
lowerback 6.07147 2.38065 1.42101
upperback -0.115976 3.30612 0.940361
thorax -3.49627 1.62558 -0.122549
lowerneck -17.0901 -4.22869 -9.9211
upperneck 20.307 -4.84932 7.13451
head 9.67411 -2.23524 3.4874
rclavicle 1.10822e-014 7.15625e-015
rhumerus -25.7363 -14.5639 -77.224
rradius 39.5401
rwrist 2.19464
rhand -17.612 12.1375
rfingers 7.12502
rthumb 8.64478 -17.6655
lclavicle 1.10822e-014 7.15625e-015
lhumerus -39.0858 24.6846 75.2612
lradius 20.6073
lwrist -17.4712
lhand -10.4911 28.2892
lfingers 7.12502
lthumb 15.5107 57.6871
rfemur 6.31259 1.77629 22.9983
rtibia 42.9955
rfoot 3.94591 2.5677
rtoes -12.2504
lfemur -27.5053 -1.53709 -22.4831
ltibia 30.3223
lfoot -1.53609 -4.17037
ltoes 3.75985
447
root 0.639353 17.1235 21.116 0.185951 -5.58871 0.613578
lowerback 6.34536 2.39089 1.3878
upperback -0.0873935 3.32252 0.940012
thorax -3.62214 1.63305 -0.117859
lowerneck -16.9487 -4.24639 -10.0121
upperneck 20.1303 -4.88051 7.24191
head 9.59412 -2.24657 3.5347
rclavicle -6.43565e-015 -4.77083e-015
rhumerus -26.2238 -15.2791 -77.0894
rradius 39.3047
rwrist 2.00715
rhand -17.2813 12.1218
rfingers 7.12502
rthumb 8.96393 -17.6678
lclavicle -6.43565e-015 -4.77083e-015
lhumerus -39.072 23.8858 75.7467
lradius 21.0588
lwrist -15.9609
lhand -10.7736 28.1103
lfingers 7.12502
lthumb 15.2386 57.5291
rfemur 5.04424 1.55227 22.774
rtibia 45.7728
rfoot 7.19648 3.20346
rtoes -10.8071
lfemur -26.8245 -1.38695 -22.6695
ltibia 30.6983
lfoot -1.8286 -4.09076
ltoes 5.02351
448
root 0.644298 17.1459 21.3213 -0.0703172 -5.73539 0.739601
lowerback 6.34539 2.44078 1.24039
upperback 0.0505158 3.37478 0.920863
thorax -3.4862 1.66294 -0.0564349
lowerneck -16.7261 -4.22924 -9.93991
upperneck 19.8885 -4.87656 7.19786
head 9.46479 -2.24682 3.50558
rclavicle 2.45748e-014 1.59028e-015
rhumerus -26.5939 -15.9217 -76.9977
rradius 38.9975
rwrist 1.95447
rhand -17.0495 12.3567
rfingers 7.12502
rthumb 9.18756 -17.4232
lclavicle 2.45748e-014 1.59028e-015
lhumerus -38.9998 23.7665 75.8947
lradius 21.4527
lwrist -15.5155
lhand -10.8333 27.3965
lfingers 7.12502
lthumb 15.181 56.8196
rfemur 3.65306 1.4663 22.411
rtibia 48.5431
rfoot 10.2868 3.50339
rtoes -5.57328
lfemur -25.8839 -1.16928 -22.9904
ltibia 30.8819
lfoot -2.60877 -3.87333
ltoes 5.56433
